<svg id="Layer_1" fill="white" data-name="Layer 1" xmlns="http://www.w3.org/2000/svg" viewBox="0 0 122.88 111.67"><defs><style>.cls-1{fill-rule:evenodd;}</style></defs><title>net-banking</title><path class="cls-1" d="M2.6,38.7,57.17,0,112,38.7ZM106.49,58.89a18.63,18.63,0,0,1,16.39,18.45V93.08a18.58,18.58,0,0,1-37.16,0V77.33A18.62,18.62,0,0,1,102.1,58.89V48.62a2.2,2.2,0,0,1,4.4,0V58.89Zm7.83,8.43a14.18,14.18,0,0,0-24.2,10V93.08a14.19,14.19,0,0,0,28.38,0V77.33a14.15,14.15,0,0,0-4.17-10Zm-10.23,6h0a3.54,3.54,0,0,1,3.53,3.53v3.65A3.54,3.54,0,0,1,104.09,84h0a3.56,3.56,0,0,1-3.54-3.53V76.8a3.54,3.54,0,0,1,3.54-3.53ZM0,95.16H6.35V89.27H9.68V86.46h3.58V52.75H5.94V44.68H95.6a9.45,9.45,0,0,0-.86,3.94v4.61c-.59.24-1.18.5-1.75.78a25.88,25.88,0,0,0-5.39,3.51V52.75H76.29V86.46h2.07v6.62h0a25.75,25.75,0,0,0,1.34,8.25H0V95.16Zm30.32-5.89h4.13V86.46H38V52.75H26.74V86.46h3.58v2.81Zm24.78,0h4.14V86.46h3.57V52.75H51.52V86.46H55.1v2.81ZM38.79,28.94,57.25,14.78,75.81,28.94Z"/></svg>